Coordinates
version=1
nRows=65
nColumns=12
inDegrees=yes

Units are S.I. units (second, meters, Newtons, ...)
Angles are in degrees

endheader
time	SC_y	SC_z	SC_x	AC_y	AC_z	AC_x	GH_y	GH_z	GH_yy	EL_x	PS_y
       0.0              -45.86           4.64          7.538           60.1          7.508          15.65          134.3          15.89         -68.28          82.81          27.45
    0.0119              -45.86           4.64          7.545           60.1          7.507          15.64          134.3          15.89         -68.27          82.82          27.45
   0.02381              -45.85          4.639          7.554           60.1          7.506          15.64          134.3          15.89         -68.27          82.82          27.45
   0.03571              -45.85          4.639          7.563           60.1          7.505          15.64          134.3          15.88         -68.27          82.83          27.46
   0.04761              -45.84          4.638          7.572           60.1          7.504          15.63          134.3          15.88         -68.26          82.84          27.46
   0.05952              -45.84          4.637          7.583           60.1          7.502          15.63          134.3          15.87         -68.26          82.84          27.46
   0.07142              -45.83          4.637          7.594          60.11          7.501          15.63          134.3          15.87         -68.25          82.85          27.47
   0.08332              -45.82          4.636          7.605          60.11          7.499          15.62          134.3          15.86         -68.25          82.86          27.47
   0.09522              -45.82          4.635          7.618          60.11          7.497          15.62          134.2          15.86         -68.25          82.87          27.48
    0.1071              -45.81          4.635          7.631          60.11          7.496          15.61          134.2          15.85         -68.24          82.88          27.48
     0.119               -45.8          4.634          7.645          60.11          7.494          15.61          134.2          15.84         -68.23          82.89          27.49
    0.1309              -45.79          4.633          7.661          60.11          7.491           15.6          134.2          15.83         -68.23           82.9          27.49
    0.1428              -45.79          4.632          7.678          60.11          7.489           15.6          134.2          15.83         -68.22          82.91           27.5
    0.1547              -45.78          4.631          7.696          60.11          7.487          15.59          134.2          15.82         -68.22          82.92           27.5
    0.1666              -45.76           4.63          7.715          60.11          7.484          15.58          134.2          15.81         -68.21          82.94          27.51
    0.1785              -45.75          4.629          7.736          60.11          7.481          15.58          134.2           15.8          -68.2          82.95          27.52
    0.1904              -45.74          4.627          7.759          60.12          7.478          15.57          134.1          15.79         -68.19          82.97          27.53
    0.2024              -45.73          4.626          7.784          60.12          7.474          15.56          134.1          15.77         -68.18          82.99          27.54
    0.2143              -45.71          4.624          7.812          60.12           7.47          15.55          134.1          15.76         -68.17          83.01          27.54
    0.2262               -45.7          4.623          7.842          60.12          7.466          15.54          134.1          15.75         -68.16          83.03          27.56
    0.2381              -45.68          4.621          7.874          60.12          7.462          15.53          134.1          15.73         -68.15          83.05          27.57
      0.25              -45.66          4.619          7.911          60.13          7.457          15.51          134.1          15.71         -68.13          83.08          27.58
    0.2619              -45.64          4.617          7.951          60.13          7.451           15.5          134.0          15.69         -68.12           83.1          27.59
    0.2738              -45.61          4.614          7.995          60.13          7.445          15.48          134.0          15.67          -68.1          83.14          27.61
    0.2857              -45.59          4.611          8.044          60.13          7.438          15.47          134.0          15.65         -68.08          83.17          27.63
    0.2976              -45.56          4.608          8.099          60.14          7.431          15.45          133.9          15.62         -68.06          83.21          27.65
    0.3095              -45.52          4.605           8.16          60.14          7.422          15.42          133.9          15.59         -68.04          83.25          27.67
    0.3214              -45.49          4.601           8.23          60.15          7.413           15.4          133.8          15.55         -68.01           83.3          27.69
    0.3333              -45.44          4.596          8.308          60.15          7.402          15.37          133.8          15.52         -67.98          83.36          27.72
    0.3452               -45.4          4.591          8.397          60.16          7.389          15.34          133.7          15.47         -67.95          83.42          27.75
    0.3571              -45.34          4.585          8.498          60.16          7.375           15.3          133.7          15.42         -67.91          83.49          27.79
     0.369              -45.28          4.579          8.614          60.17          7.359          15.26          133.6          15.37         -67.86          83.58          27.83
    0.3809              -45.21          4.571          8.748          60.18          7.341          15.21          133.5           15.3         -67.81          83.67          27.87
    0.3928              -45.12          4.562          8.904          60.19          7.319          15.16          133.4          15.22         -67.75          83.78          27.93
    0.4047              -45.02          4.552          9.087           60.2          7.294          15.09          133.3          15.13         -67.68          83.91          27.99
    0.4166              -44.91           4.54          9.302          60.22          7.264          15.01          133.1          15.03          -67.6          84.07          28.07
    0.4285              -44.77          4.525          9.558          60.23          7.228          14.92          133.0           14.9          -67.5          84.25          28.16
    0.4404               -44.6          4.508          9.864          60.25          7.186          14.81          132.8          14.75         -67.38          84.47          28.27
    0.4523               -44.4          4.486          10.24          60.28          7.134          14.68          132.5          14.57         -67.24          84.73           28.4
    0.4642              -44.16          4.461          10.69          60.31          7.072          14.52          132.2          14.35         -67.07          85.06          28.56
    0.4761              -43.86          4.429          11.25          60.34          6.994          14.32          131.9          14.07         -66.85          85.45          28.75
     0.488              -43.48          4.389          11.94          60.39          6.897          14.07          131.4          13.73         -66.59          85.95           29.0
    0.4999              -43.01          4.339          12.82          60.45          6.776          13.75          130.8           13.3         -66.25          86.58          29.31
    0.5118               -42.4          4.276          13.94          60.52          6.621          13.35          130.1          12.75         -65.82          87.37           29.7
    0.5237              -41.63          4.194          15.37          60.61          6.423          12.84          129.2          12.05         -65.28          88.39           30.2
    0.5356              -40.64           4.09           17.2          60.73          6.169          12.18          128.0          11.14         -64.57           89.7          30.85
    0.5475              -39.37          3.956          19.54          60.89          5.844          11.34          126.4          9.993         -63.67          91.37          31.67
    0.5594              -37.78          3.789          22.49          61.08          5.435          10.29          124.5          8.545         -62.55          93.47          32.71
    0.5713              -35.84          3.584          26.08          61.31          4.938          8.999          122.1          6.781         -61.17          96.03          33.97
    0.5832               -33.6          3.347          30.24          61.59          4.361          7.507          119.4          4.736         -59.58          98.99          35.43
    0.5952              -31.16          3.091          34.74          61.88          3.736          5.892          116.4          2.522         -57.85          102.2          37.02
    0.6071              -28.73          2.834          39.25          62.17          3.112          4.276          113.5         0.3079         -56.12          105.4           38.6
     0.619              -26.48          2.597          43.41          62.45          2.535          2.784          110.7         -1.737         -54.53          108.4          40.07
    0.6309              -24.54          2.393           47.0          62.68          2.037          1.497          108.4         -3.501         -53.15          110.9          41.33
    0.6428              -22.95          2.225          49.94          62.87          1.629         0.4412          106.5         -4.949         -52.03          113.0          42.36
    0.6547              -21.69          2.092          52.28          63.03          1.304        -0.3987          104.9           -6.1         -51.13          114.7          43.19
    0.6666               -20.7          1.987          54.12          63.15           1.05         -1.056          103.7         -7.001         -50.43          116.0          43.83
    0.6785              -19.92          1.906          55.55          63.24          0.852         -1.569          102.8         -7.704         -49.88          117.0          44.34
    0.6904              -19.32          1.843          56.66          63.31         0.6972         -1.969          102.0         -8.253         -49.45          117.8          44.73
    0.7023              -18.85          1.793          57.54          63.37         0.5755         -2.284          101.5         -8.684         -49.11          118.5          45.04
    0.7142              -18.47          1.753          58.24          63.42         0.4788         -2.534          101.0         -9.027         -48.85          119.0          45.28
    0.7261              -18.17          1.721           58.8          63.45         0.4013         -2.734          100.6         -9.302         -48.63          119.4          45.48
     0.738              -17.92          1.695          59.25          63.48         0.3385         -2.897          100.3         -9.524         -48.46          119.7          45.64
    0.7499              -17.72          1.674          59.62          63.51         0.2871          -3.03          100.1         -9.707         -48.32          119.9          45.77
    0.7618              -17.56          1.657          59.93          63.53         0.2446          -3.14           99.9         -9.857          -48.2          120.2          45.88
